<?xml version="1.0" encoding="utf-8"?>
<!-- Generator: Adobe Illustrator 22.0.0, SVG Export Plug-In . SVG Version: 6.00 Build 0)  -->
<svg version="1.1" id="Слой_1" xmlns="http://www.w3.org/2000/svg" xmlns:xlink="http://www.w3.org/1999/xlink" x="0px" y="0px"
	 viewBox="0 0 18.6 20.3" style="enable-background:new 0 0 18.6 20.3;" xml:space="preserve">
<style type="text/css">
	.st0{fill:#FFFFFF;}
</style>
<g>
	<path class="st0" d="M2.8,18.6c0.1,0.7,0.6,1.2,1.3,1.2h10.5c0.7,0,1.2-0.5,1.3-1.2l1.2-12.4H1.5L2.8,18.6z"/>
	<path class="st0" d="M17,2.4h-5.1V1.8c0-0.7-0.6-1.3-1.3-1.3H8c-0.7,0-1.3,0.6-1.3,1.3v0.7H1.6C0.9,2.4,0.3,3,0.3,3.7S0.9,5,1.6,5
		H17c0.7,0,1.3-0.6,1.3-1.3S17.7,2.4,17,2.4z"/>
</g>
</svg>
